<svg xmlns="http://www.w3.org/2000/svg" width="1680" height="820" viewBox="0 0 1680 820" role="img" aria-labelledby="title desc">
  <title id="title">Public health statistics workflow</title>
  <desc id="desc">Staged workflow diagram with clear horizontal and vertical connectors from local workbook through data cleaning, descriptive summary table, crude group comparisons, age-adjusted models, forest plots, exploratory interaction analysis, Quarto report, and GitHub Pages deployment.</desc>
  <defs>
    <style>
      .bg { fill: #f8fafc; }
      .group { fill: #ffffff; stroke: #cbd5e1; stroke-width: 1.6; }
      .step { fill: #ffffff; stroke: #2563eb; stroke-width: 2.2; }
      .analysis { fill: #eff6ff; stroke: #2563eb; stroke-width: 2.2; }
      .report { fill: #fff7ed; stroke: #ea580c; stroke-width: 2.2; }
      .deploy { fill: #ecfdf5; stroke: #059669; stroke-width: 2.2; }
      .title { fill: #0f172a; font: 700 26px Arial, sans-serif; }
      .subtitle { fill: #475569; font: 16px Arial, sans-serif; }
      .groupLabel { fill: #334155; font: 700 15px Arial, sans-serif; letter-spacing: 0.02em; }
      .label { fill: #0f172a; font: 700 18px Arial, sans-serif; }
      .small { fill: #475569; font: 14px Arial, sans-serif; }
      .arrow { stroke: #64748b; stroke-width: 3; fill: none; marker-end: url(#arrowhead); stroke-linecap: round; stroke-linejoin: round; }
    </style>
    <marker id="arrowhead" markerWidth="12" markerHeight="8" refX="11" refY="4" orient="auto">
      <path d="M0,0 L12,4 L0,8 Z" fill="#64748b" />
    </marker>
  </defs>

  <rect class="bg" x="0" y="0" width="1680" height="820" />
  <text class="title" x="60" y="52">Public Health Statistics Workflow</text>
  <text class="subtitle" x="60" y="80">Readable staged workflow for GitHub README rendering</text>

  <!-- group panels -->
  <rect class="group" x="40" y="110" width="1600" height="140" rx="16" />
  <rect class="group" x="40" y="275" width="1600" height="140" rx="16" />
  <rect class="group" x="40" y="440" width="1600" height="140" rx="16" />
  <rect class="group" x="40" y="605" width="1600" height="140" rx="16" />

  <text class="groupLabel" x="60" y="138">Data Preparation</text>
  <text class="groupLabel" x="60" y="303">Descriptive Analysis</text>
  <text class="groupLabel" x="60" y="468">Adjusted Modeling</text>
  <text class="groupLabel" x="60" y="633">Reporting &amp; Deployment</text>

  <!-- row 1 -->
  <rect class="step" x="190" y="155" width="250" height="70" rx="14" />
  <text class="label" x="315" y="186" text-anchor="middle">Local Workbook</text>
  <text class="small" x="315" y="209" text-anchor="middle">local input</text>

  <path class="arrow" d="M440 190 H500" />

  <rect class="step" x="500" y="155" width="250" height="70" rx="14" />
  <text class="label" x="625" y="186" text-anchor="middle">Data Cleaning</text>
  <text class="small" x="625" y="209" text-anchor="middle">derived fields</text>

  <!-- row 2 -->
  <path class="arrow" d="M625 225 V295" />

  <rect class="analysis" x="190" y="320" width="250" height="70" rx="14" />
  <text class="label" x="315" y="351" text-anchor="middle">Descriptive Summary Table</text>
  <text class="small" x="315" y="374" text-anchor="middle">overall and by sex</text>

  <path class="arrow" d="M440 355 H500" />

  <rect class="analysis" x="500" y="320" width="250" height="70" rx="14" />
  <text class="label" x="625" y="351" text-anchor="middle">Crude Group Comparisons</text>
  <text class="small" x="625" y="374" text-anchor="middle">Mann-Whitney and chi-square</text>

  <!-- row 3 -->
  <path class="arrow" d="M625 390 V460" />

  <rect class="analysis" x="190" y="485" width="250" height="70" rx="14" />
  <text class="label" x="315" y="516" text-anchor="middle">Age-Adjusted Models</text>
  <text class="small" x="315" y="539" text-anchor="middle">categorical age only</text>

  <path class="arrow" d="M440 520 H500" />

  <rect class="analysis" x="500" y="485" width="250" height="70" rx="14" />
  <text class="label" x="625" y="516" text-anchor="middle">Forest Plots</text>
  <text class="small" x="625" y="539" text-anchor="middle">adjusted effects and odds</text>

  <!-- row 4 -->
  <path class="arrow" d="M750 520 H810" />

  <rect class="analysis" x="810" y="485" width="250" height="70" rx="14" />
  <text class="label" x="935" y="516" text-anchor="middle">Exploratory Interaction Analysis</text>
  <text class="small" x="935" y="539" text-anchor="middle">subgroup heterogeneity check</text>

  <!-- row 5 -->
  <path class="arrow" d="M935 555 V620" />

  <rect class="report" x="690" y="650" width="250" height="70" rx="14" />
  <text class="label" x="815" y="681" text-anchor="middle">Quarto Report</text>
  <text class="small" x="815" y="704" text-anchor="middle">presentation layer</text>

  <path class="arrow" d="M940 685 H1000" />

  <rect class="deploy" x="1000" y="650" width="250" height="70" rx="14" />
  <text class="label" x="1125" y="681" text-anchor="middle">GitHub Pages Deployment</text>
  <text class="small" x="1125" y="704" text-anchor="middle">published site</text>
</svg>
