<svg xmlns="http://www.w3.org/2000/svg" width="1500" height="960" viewBox="0 0 1500 960" role="img" aria-labelledby="title desc">
  <title id="title">Public health statistics workflow</title>
  <desc id="desc">Portfolio-style workflow from a local workbook through cleaning, descriptive summary table, crude comparisons, age-adjusted models, forest plots, exploratory interaction analysis, Quarto report, and GitHub Pages deployment.</desc>
  <defs>
    <style>
      .bg { fill: #f8fafc; }
      .step { fill: #ffffff; stroke: #2563eb; stroke-width: 2.2; }
      .analysis { fill: #eff6ff; stroke: #2563eb; stroke-width: 2.2; }
      .report { fill: #fff7ed; stroke: #ea580c; stroke-width: 2.2; }
      .deploy { fill: #ecfdf5; stroke: #059669; stroke-width: 2.2; }
      .title { fill: #0f172a; font: 700 26px Arial, sans-serif; }
      .subtitle { fill: #475569; font: 16px Arial, sans-serif; }
      .label { fill: #0f172a; font: 700 18px Arial, sans-serif; }
      .small { fill: #475569; font: 14px Arial, sans-serif; }
      .arrow { stroke: #64748b; stroke-width: 3.1; fill: none; marker-end: url(#arrowhead); stroke-linecap: round; stroke-linejoin: round; }
    </style>
    <marker id="arrowhead" markerWidth="12" markerHeight="8" refX="11" refY="4" orient="auto">
      <path d="M0,0 L12,4 L0,8 Z" fill="#64748b" />
    </marker>
  </defs>

  <rect class="bg" x="0" y="0" width="1500" height="960" />
  <text class="title" x="52" y="52">Public Health Statistics Workflow</text>
  <text class="subtitle" x="52" y="80">Reproducible public-health analytics workflow with notebook analysis and Quarto reporting</text>

  <!-- Row 1 -->
  <rect class="step" x="60" y="126" width="260" height="96" rx="14" />
  <text class="label" x="190" y="164" text-anchor="middle">Local Workbook</text>
  <text class="small" x="190" y="188" text-anchor="middle">local input</text>

  <path class="arrow" d="M320 174 H360" />

  <rect class="step" x="360" y="126" width="260" height="96" rx="14" />
  <text class="label" x="490" y="164" text-anchor="middle">Data Cleaning</text>
  <text class="small" x="490" y="188" text-anchor="middle">derived fields</text>

  <!-- Row 2 -->
  <path class="arrow" d="M490 222 V260 H1060 V312" />

  <rect class="analysis" x="930" y="312" width="260" height="96" rx="14" />
  <text class="label" x="1060" y="348" text-anchor="middle">Descriptive Summary Table</text>
  <text class="small" x="1060" y="372" text-anchor="middle">overall and by sex</text>

  <path class="arrow" d="M930 360 H880" />

  <rect class="analysis" x="620" y="312" width="260" height="96" rx="14" />
  <text class="label" x="750" y="348" text-anchor="middle">Crude Group Comparisons</text>
  <text class="small" x="750" y="372" text-anchor="middle">Mann-Whitney, chi-square</text>

  <!-- Row 3 -->
  <path class="arrow" d="M750 408 V452 H190 V504" />

  <rect class="analysis" x="60" y="504" width="260" height="96" rx="14" />
  <text class="label" x="190" y="540" text-anchor="middle">Age-Adjusted Models</text>
  <text class="small" x="190" y="564" text-anchor="middle">categorical age only</text>

  <path class="arrow" d="M320 552 H360" />

  <rect class="analysis" x="360" y="504" width="260" height="96" rx="14" />
  <text class="label" x="490" y="540" text-anchor="middle">Forest Plots</text>
  <text class="small" x="490" y="564" text-anchor="middle">adjusted effects and odds</text>

  <!-- Row 4 -->
  <path class="arrow" d="M620 552 H670 V696 H750" />

  <rect class="analysis" x="620" y="696" width="260" height="96" rx="14" />
  <text class="label" x="750" y="732" text-anchor="middle">Exploratory Interaction Analysis</text>
  <text class="small" x="750" y="756" text-anchor="middle">subgroup heterogeneity check</text>

  <path class="arrow" d="M880 744 H930" />

  <rect class="report" x="930" y="696" width="260" height="96" rx="14" />
  <text class="label" x="1060" y="732" text-anchor="middle">Quarto Report</text>
  <text class="small" x="1060" y="756" text-anchor="middle">presentation layer</text>

  <!-- Row 5 -->
  <path class="arrow" d="M1060 792 V828 H760 V840" />

  <rect class="deploy" x="630" y="840" width="260" height="96" rx="14" />
  <text class="label" x="760" y="876" text-anchor="middle">GitHub Pages Deployment</text>
  <text class="small" x="760" y="900" text-anchor="middle">published site</text>
</svg>
