<svg xmlns="http://www.w3.org/2000/svg" width="1860" height="920" viewBox="0 0 1860 920" role="img" aria-labelledby="title desc">
  <title id="title">Workflow overview</title>
  <desc id="desc">A readable zig-zag workflow diagram showing the progression from raw data through data cleaning, descriptive analysis, crude comparisons, age-adjusted models, interaction analysis, forest plots, Quarto report, and GitHub Pages.</desc>
  <defs>
    <marker id="arrow" viewBox="0 0 10 10" refX="9" refY="5" markerWidth="11" markerHeight="11" orient="auto">
      <path d="M 0 0 L 10 5 L 0 10 z" fill="#667085"/>
    </marker>
    <filter id="shadow" x="-20%" y="-20%" width="140%" height="140%">
      <feDropShadow dx="0" dy="2" stdDeviation="2.5" flood-color="#0f172a" flood-opacity="0.08"/>
    </filter>
    <style>
      .title { font: 700 24px Inter, Arial, sans-serif; fill: #111827; }
      .subtitle { font: 13px Inter, Arial, sans-serif; fill: #667085; }
      .nodeTitle { font: 700 22px Inter, Arial, sans-serif; fill: #0F172A; }
      .nodeSub { font: 15px Inter, Arial, sans-serif; fill: #334155; }
      .arrow { stroke: #667085; stroke-width: 3.4; fill: none; stroke-linecap: round; stroke-linejoin: round; marker-end: url(#arrow); }
    </style>
  </defs>

  <rect width="1860" height="920" fill="#ffffff"/>
  <text x="930" y="40" text-anchor="middle" class="title">Workflow overview</text>
  <text x="930" y="66" text-anchor="middle" class="subtitle">Alternating layout for readable GitHub README rendering</text>

  <!-- connectors -->
  <g class="arrow">
    <!-- row 1 to row 1 -->
    <path d="M 390 164 L 472 164"/>
    <!-- row 1 to row 2 -->
    <path d="M 637 210 C 637 250, 1207 250, 1207 312"/>
    <!-- row 2 to row 2 -->
    <path d="M 1042 356 L 390 356"/>
    <!-- row 2 to row 3 -->
    <path d="M 225 404 C 225 448, 225 462, 225 506"/>
    <!-- row 3 to row 3 -->
    <path d="M 390 552 L 472 552"/>
    <!-- row 3 to row 4 -->
    <path d="M 637 598 C 637 652, 1207 652, 1207 700"/>
    <!-- row 4 to row 4 -->
    <path d="M 1042 746 L 390 746"/>
    <!-- row 4 to row 5 -->
    <path d="M 225 792 C 225 840, 930 840, 930 810"/>
  </g>

  <!-- row 1 -->
  <g filter="url(#shadow)" font-family="Inter, Arial, sans-serif" text-anchor="middle">
    <g transform="translate(60 118)">
      <rect width="330" height="92" rx="20" fill="#DCEBFA" stroke="#8FAECC" stroke-width="1.4"/>
      <text x="165" y="40" class="nodeTitle">Raw Data</text>
      <text x="165" y="63" class="nodeSub">Workbook input</text>
    </g>
    <g transform="translate(472 118)">
      <rect width="330" height="92" rx="20" fill="#E4F2F0" stroke="#88B8B0" stroke-width="1.4"/>
      <text x="165" y="40" class="nodeTitle">Data Cleaning</text>
      <text x="165" y="63" class="nodeSub">Derived variables</text>
    </g>
  </g>

  <!-- row 2 -->
  <g filter="url(#shadow)" font-family="Inter, Arial, sans-serif" text-anchor="middle">
    <g transform="translate(1042 312)">
      <rect width="330" height="92" rx="20" fill="#F2E8D5" stroke="#C8AA76" stroke-width="1.4"/>
      <text x="165" y="40" class="nodeTitle">Descriptive Analysis</text>
      <text x="165" y="63" class="nodeSub">Summary statistics</text>
    </g>
    <g transform="translate(60 312)">
      <rect width="330" height="92" rx="20" fill="#F0E0EA" stroke="#C78EA9" stroke-width="1.4"/>
      <text x="165" y="40" class="nodeTitle">Crude Comparisons</text>
      <text x="165" y="63" class="nodeSub">Mann-Whitney and chi-square</text>
    </g>
  </g>

  <!-- row 3 -->
  <g filter="url(#shadow)" font-family="Inter, Arial, sans-serif" text-anchor="middle">
    <g transform="translate(60 506)">
      <rect width="330" height="92" rx="20" fill="#E6E3FA" stroke="#A69ADA" stroke-width="1.4"/>
      <text x="165" y="40" class="nodeTitle">Age-Adjusted Models</text>
      <text x="165" y="63" class="nodeSub">Categorical age only</text>
    </g>
    <g transform="translate(472 506)">
      <rect width="330" height="92" rx="20" fill="#E8F0DB" stroke="#ABC07F" stroke-width="1.4"/>
      <text x="165" y="40" class="nodeTitle">Interaction Analysis</text>
      <text x="165" y="63" class="nodeSub">Exploratory subgroup check</text>
    </g>
  </g>

  <!-- row 4 -->
  <g filter="url(#shadow)" font-family="Inter, Arial, sans-serif" text-anchor="middle">
    <g transform="translate(1042 700)">
      <rect width="330" height="92" rx="20" fill="#DCEBFA" stroke="#8FAECC" stroke-width="1.4"/>
      <text x="165" y="40" class="nodeTitle">Forest Plots</text>
      <text x="165" y="63" class="nodeSub">Adjusted effects and odds</text>
    </g>
    <g transform="translate(60 700)">
      <rect width="330" height="92" rx="20" fill="#F4E6D5" stroke="#D2AA74" stroke-width="1.4"/>
      <text x="165" y="40" class="nodeTitle">Quarto Report</text>
      <text x="165" y="63" class="nodeSub">Presentation layer</text>
    </g>
  </g>

  <!-- row 5 -->
  <g filter="url(#shadow)" font-family="Inter, Arial, sans-serif" text-anchor="middle">
    <g transform="translate(765 810)">
      <rect width="330" height="92" rx="20" fill="#E6F0F4" stroke="#9AB9C9" stroke-width="1.4"/>
      <text x="165" y="40" class="nodeTitle">GitHub Pages</text>
      <text x="165" y="63" class="nodeSub">Published site</text>
    </g>
  </g>
</svg>
