<svg xmlns="http://www.w3.org/2000/svg" width="1800" height="760" viewBox="0 0 1800 760" role="img" aria-labelledby="title desc">
  <title id="title">Workflow overview</title>
  <desc id="desc">A zig-zag workflow diagram showing the progression from raw data through cleaning, descriptive analysis, crude comparisons, age-adjusted models, interaction analysis, forest plots, Quarto reporting, and GitHub Pages.</desc>
  <defs>
    <marker id="arrow" viewBox="0 0 10 10" refX="9" refY="5" markerWidth="10" markerHeight="10" orient="auto">
      <path d="M 0 0 L 10 5 L 0 10 z" fill="#64748B"/>
    </marker>
    <filter id="shadow" x="-20%" y="-20%" width="140%" height="140%">
      <feDropShadow dx="0" dy="2" stdDeviation="2.2" flood-color="#0f172a" flood-opacity="0.08"/>
    </filter>
    <style>
      .title { font: 700 22px Inter, Arial, sans-serif; fill: #111827; }
      .subtitle { font: 13px Inter, Arial, sans-serif; fill: #64748B; }
      .nodeTitle { font: 700 20px Inter, Arial, sans-serif; fill: #0F172A; }
      .nodeSub { font: 15px Inter, Arial, sans-serif; fill: #334155; }
      .arrow { stroke: #64748B; stroke-width: 3.2; fill: none; stroke-linecap: round; stroke-linejoin: round; marker-end: url(#arrow); }
    </style>
  </defs>

  <rect width="1800" height="760" fill="#ffffff"/>
  <text x="900" y="38" text-anchor="middle" class="title">Workflow overview</text>
  <text x="900" y="62" text-anchor="middle" class="subtitle">Readable zig-zag flow for GitHub README rendering</text>

  <!-- connectors -->
  <g class="arrow">
    <!-- Row 1: Raw Data -> Data Cleaning -->
    <path d="M 370 160 L 460 160"/>
    <path d="M 590 200 L 590 262"/>
    <!-- Row 2: Descriptive Analysis <- Crude Comparisons -->
    <path d="M 1190 322 L 1110 322"/>
    <path d="M 1030 362 L 1030 424"/>
    <!-- Row 3: Age-Adjusted Models -> Interaction Analysis -->
    <path d="M 370 484 L 460 484"/>
    <path d="M 590 524 L 590 586"/>
    <!-- Row 4: Quarto Report <- Forest Plots -->
    <path d="M 1190 646 L 1110 646"/>
    <path d="M 1030 686 L 1030 718"/>
    <!-- Final down to GitHub Pages -->
    <path d="M 1030 718 L 900 718"/>
  </g>

  <!-- row 1 -->
  <g filter="url(#shadow)" font-family="Inter, Arial, sans-serif" text-anchor="middle">
    <g transform="translate(60 110)">
      <rect width="310" height="100" rx="20" fill="#DCEBFA" stroke="#8FAECC" stroke-width="1.4"/>
      <text x="155" y="40" class="nodeTitle">Raw Data</text>
      <text x="155" y="63" class="nodeSub">Workbook import</text>
    </g>
    <g transform="translate(460 110)">
      <rect width="310" height="100" rx="20" fill="#E4F2F0" stroke="#88B8B0" stroke-width="1.4"/>
      <text x="155" y="40" class="nodeTitle">Data Cleaning</text>
      <text x="155" y="63" class="nodeSub">Derived variables</text>
    </g>
  </g>

  <!-- row 2 -->
  <g filter="url(#shadow)" font-family="Inter, Arial, sans-serif" text-anchor="middle">
    <g transform="translate(1120 272)">
      <rect width="310" height="100" rx="20" fill="#F2E8D5" stroke="#C8AA76" stroke-width="1.4"/>
      <text x="155" y="40" class="nodeTitle">Descriptive Analysis</text>
      <text x="155" y="63" class="nodeSub">Summary statistics</text>
    </g>
    <g transform="translate(690 272)">
      <rect width="310" height="100" rx="20" fill="#F0E0EA" stroke="#C78EA9" stroke-width="1.4"/>
      <text x="155" y="40" class="nodeTitle">Crude Comparisons</text>
      <text x="155" y="63" class="nodeSub">Mann-Whitney and chi-square</text>
    </g>
  </g>

  <!-- row 3 -->
  <g filter="url(#shadow)" font-family="Inter, Arial, sans-serif" text-anchor="middle">
    <g transform="translate(60 434)">
      <rect width="310" height="100" rx="20" fill="#E6E3FA" stroke="#A69ADA" stroke-width="1.4"/>
      <text x="155" y="40" class="nodeTitle">Age-Adjusted Models</text>
      <text x="155" y="63" class="nodeSub">Categorical age only</text>
    </g>
    <g transform="translate(460 434)">
      <rect width="310" height="100" rx="20" fill="#E8F0DB" stroke="#ABC07F" stroke-width="1.4"/>
      <text x="155" y="40" class="nodeTitle">Interaction Analysis</text>
      <text x="155" y="63" class="nodeSub">Exploratory subgroup check</text>
    </g>
  </g>

  <!-- row 4 -->
  <g filter="url(#shadow)" font-family="Inter, Arial, sans-serif" text-anchor="middle">
    <g transform="translate(1120 596)">
      <rect width="310" height="100" rx="20" fill="#DCEBFA" stroke="#8FAECC" stroke-width="1.4"/>
      <text x="155" y="40" class="nodeTitle">Forest Plots</text>
      <text x="155" y="63" class="nodeSub">Adjusted effects and odds</text>
    </g>
    <g transform="translate(690 596)">
      <rect width="310" height="100" rx="20" fill="#F4E6D5" stroke="#D2AA74" stroke-width="1.4"/>
      <text x="155" y="40" class="nodeTitle">Quarto Report</text>
      <text x="155" y="63" class="nodeSub">Presentation layer</text>
    </g>
  </g>

  <!-- final node -->
  <g filter="url(#shadow)" font-family="Inter, Arial, sans-serif" text-anchor="middle">
    <g transform="translate(745 670)">
      <rect width="310" height="100" rx="20" fill="#E6F0F4" stroke="#9AB9C9" stroke-width="1.4"/>
      <text x="155" y="40" class="nodeTitle">GitHub Pages</text>
      <text x="155" y="63" class="nodeSub">Published site</text>
    </g>
  </g>
</svg>
